{
    "asset" : {
        "generator" : "Khronos glTF Blender I/O v1.3.48",
        "version" : "2.0"
    },
    "scene" : 0,
    "scenes" : [
        {
            "name" : "Scene",
            "nodes" : [
                0,
                1
            ]
        }
    ],
    "nodes" : [
        {
            "mesh" : 0,
            "name" : "Humano:Body"
        },
        {
            "mesh" : 1,
            "name" : "Humano:High-poly"
        }
    ],
    "materials" : [
        {
            "doubleSided" : true,
            "emissiveFactor" : [
                0,
                0,
                0
            ],
            "name" : "Humano:Body:Defaultskin",
            "pbrMetallicRoughness" : {
                "baseColorFactor" : [
                    0.9828705787658691,
                    0.9999881386756897,
                    0.9871336221694946,
                    1
                ],
                "metallicFactor" : 0,
                "roughnessFactor" : 0.03999999910593033
            }
        },
        {
            "doubleSided" : true,
            "emissiveFactor" : [
                0,
                0,
                0
            ],
            "name" : "Humano:High-poly:Eye_brown",
            "pbrMetallicRoughness" : {
                "baseColorTexture" : {
                    "index" : 0,
                    "texCoord" : 0
                },
                "metallicFactor" : 0,
                "roughnessFactor" : 0
            }
        }
    ],
    "meshes" : [
        {
            "name" : "Humano:Body",
            "primitives" : [
                {
                    "attributes" : {
                        "POSITION" : 0,
                        "NORMAL" : 1,
                        "TEXCOORD_0" : 2
                    },
                    "indices" : 3,
                    "material" : 0
                }
            ]
        },
        {
            "name" : "Humano:High-poly",
            "primitives" : [
                {
                    "attributes" : {
                        "POSITION" : 4,
                        "NORMAL" : 5,
                        "TEXCOORD_0" : 6
                    },
                    "indices" : 7,
                    "material" : 1
                }
            ]
        }
    ],
    "textures" : [
        {
            "source" : 0
        }
    ],
    "images" : [
        {
            "bufferView" : 8,
            "mimeType" : "image/png",
            "name" : "brown_eye"
        }
    ],
    "accessors" : [
        {
            "bufferView" : 0,
            "componentType" : 5126,
            "count" : 14517,
            "max" : [
                3.9191999435424805,
                17.216400146484375,
                2.72160005569458
            ],
            "min" : [
                -3.648900032043457,
                0.035300254821777344,
                -2.351300001144409
            ],
            "type" : "VEC3"
        },
        {
            "bufferView" : 1,
            "componentType" : 5126,
            "count" : 14517,
            "type" : "VEC3"
        },
        {
            "bufferView" : 2,
            "componentType" : 5126,
            "count" : 14517,
            "type" : "VEC2"
        },
        {
            "bufferView" : 3,
            "componentType" : 5123,
            "count" : 80268,
            "type" : "SCALAR"
        },
        {
            "bufferView" : 4,
            "componentType" : 5126,
            "count" : 1076,
            "max" : [
                0.7948399782180786,
                16.247900009155273,
                0.4262700080871582
            ],
            "min" : [
                -0.14305999875068665,
                15.896299362182617,
                0.15309999883174896
            ],
            "type" : "VEC3"
        },
        {
            "bufferView" : 5,
            "componentType" : 5126,
            "count" : 1076,
            "type" : "VEC3"
        },
        {
            "bufferView" : 6,
            "componentType" : 5126,
            "count" : 1076,
            "type" : "VEC2"
        },
        {
            "bufferView" : 7,
            "componentType" : 5123,
            "count" : 6120,
            "type" : "SCALAR"
        }
    ],
    "bufferViews" : [
        {
            "buffer" : 0,
            "byteLength" : 174204,
            "byteOffset" : 0
        },
        {
            "buffer" : 0,
            "byteLength" : 174204,
            "byteOffset" : 174204
        },
        {
            "buffer" : 0,
            "byteLength" : 116136,
            "byteOffset" : 348408
        },
        {
            "buffer" : 0,
            "byteLength" : 160536,
            "byteOffset" : 464544
        },
        {
            "buffer" : 0,
            "byteLength" : 12912,
            "byteOffset" : 625080
        },
        {
            "buffer" : 0,
            "byteLength" : 12912,
            "byteOffset" : 637992
        },
        {
            "buffer" : 0,
            "byteLength" : 8608,
            "byteOffset" : 650904
        },
        {
            "buffer" : 0,
            "byteLength" : 12240,
            "byteOffset" : 659512
        },
        {
            "buffer" : 0,
            "byteLength" : 610817,
            "byteOffset" : 671752
        }
    ],
    "buffers" : [
        {
            "byteLength" : 1282572,
            "uri" : "data:application/octet-stream;base64,"
        }
    ]
}
